<?xml version="1.0" encoding="UTF-8"?>
<svg id="Layer_6" data-name="Layer 6" xmlns="http://www.w3.org/2000/svg" viewBox="0 0 680.31 680.31">
  <defs>
    <style>
      .cls-1 {
        fill: #f9f9fa;
      }

      .cls-2 {
        fill: #f3c928;
      }

      .cls-3 {
        fill: #fea621;
      }

      .cls-4 {
        fill: #e11620;
      }

      .cls-5 {
        fill: #090909;
      }

      .cls-6 {
        fill: #2e58a6;
      }

      .cls-7 {
        font-size: 55.73px;
      }

      .cls-7, .cls-8 {
        font-family: LiHeiPro, 'LiHei Pro';
      }

      .cls-9 {
        fill: #26add0;
        stroke: #060404;
        stroke-miterlimit: 10;
      }

      .cls-8 {
        fill: #fafbfc;
        font-size: 26.97px;
        letter-spacing: .1em;
      }
    </style>
  </defs>
  <g>
    <path class="cls-9" d="M198.52,281.19l51.62,95.06,161.8-79.7c1.31-.6,2.78-.87,4.2-.59,3.83,.73,5.24,4.53,2.22,8.21-.19,.23-.41,.45-.63,.65l-132.67,150.29,54.96,155.97c1.7,2.47-6.99,7.62-9.3,5.04-.41-.46-.81-.94-1.32-1.3l-138.71-75.71-136.95,90.04c-2.85,2.65-7.21-.54-5.69-4.15l55.02-153.68L16.76,393.23c-4.78-3.62-1.92-11.37,4.01-10.86l109.33,9.36,39.96-110.93c4.92-13.66,23.91-13.4,28.47,.39Z"/>
    <path class="cls-1" d="M235.73,379.56c-5.21-23.03-27.88-49.78-53.65-43.22-24.18,6.16-33.12,38.88-27.92,61.91"/>
    <ellipse class="cls-5" cx="206.64" cy="356.41" rx="5.2" ry="5.32"/>
    <ellipse class="cls-5" cx="173.48" cy="357.44" rx="4.79" ry="4.89"/>
    <path class="cls-4" d="M190.45,365.15l32.55,1.38c1.56,.07,2.11,1.71,.74,2.2l-33.46,11.99,.18-15.57Z"/>
  </g>
  <g>
    <g>
      <polygon class="cls-3" points="421.98 309.64 615.95 269.16 630.72 339.85 436.33 380.41 421.98 309.64"/>
      <polygon class="cls-6" points="410.06 252.47 604.02 211.99 617.75 277.7 423.36 318.26 410.06 252.47"/>
      <path id="path908" class="cls-6" d="M427.54,310.17c20.44-4.24,1.95-.59,22.39-4.85l-7.27,21.42c-.81,3.95,2.12,8.01,5.3,7.36l46.88-9.77c3.18-.67,4.24-5.57,1.92-8.86l-14.43-16.9,82.31-16.96"/>
      <path id="path908-2" data-name="path908" class="cls-4" d="M414.83,249.25c20.44-4.24,1.95-.59,22.39-4.85l-7.27,21.42c-.81,3.95,2.12,8.01,5.3,7.36l46.88-9.77c3.18-.67,4.24-5.57,1.92-8.86l-14.43-16.9,82.31-16.96"/>
      <polygon class="cls-4" points="332.87 189.26 597.27 134.17 613.1 210.1 419.14 250.57 455.94 421.7 650.47 381.11 662.75 447.98 398.37 503.15 332.87 189.26"/>
      <path id="path908-3" data-name="path908" class="cls-2" d="M332.9,189.49c36.29-7.54,3.47-.97,39.77-8.54l-14.58,30.05c-1.75,5.49,3.06,10.83,8.71,9.67l83.25-17.35c5.64-1.19,7.92-8,4.12-12.34l-23.95-22.02,146.13-30.19,4.55-.95,16.4-3.42-3.42-16.4-.61-2.92-15.4-73.89c-2.72-13.04-15.49-21.41-28.53-18.69l-217.25,45.28c-13,2.76-21.32,15.51-18.61,28.51l19.41,93.2Z"/>
    </g>
    <text class="cls-7" transform="translate(348.2 148.31) rotate(-12.61)"><tspan x="0" y="0">奇點創意</tspan></text>
    <text class="cls-8" transform="translate(489.22 291.79) rotate(-11.97)"><tspan x="0" y="0">MAKER</tspan></text>
    <text class="cls-8" transform="translate(503.79 350.8) rotate(-11.97)"><tspan x="0" y="0">CODER</tspan></text>
  </g>
</svg>