<?xml version="1.0" encoding="UTF-8"?>
<svg id="Layer_6" data-name="Layer 6" xmlns="http://www.w3.org/2000/svg" viewBox="0 0 680.31 680.31">
  <defs>
    <style>
      .cls-1, .cls-2 {
        fill: #000102;
      }

      .cls-2 {
        stroke: #000205;
      }

      .cls-2, .cls-3 {
        stroke-miterlimit: 10;
        stroke-width: 18px;
      }

      .cls-3 {
        fill: #000205;
        stroke: #000307;
      }
    </style>
  </defs>
  <g>
    <path id="path908" class="cls-2" d="M38.27,544.2c47,8.35,3.86-.04,41.31,6.47,4.17,.72,40.48,12.98,36.85,15.74l-33.66,49.83c-5.7,9.33-2.88,22.62,5.11,24.06l117.83,20.84c7.99,1.39,15.2-10.13,13.05-20.84l-6.4-60.04c-1.57-2.61-34.83-12.23-32.07-11.72l175.47,28.8"/>
    <path class="cls-1" d="M568.08,459.94l-316.38-56.61,6.79,49.35c2.61,10.8-5.19,22.21-14.1,20.66l-131.52-23.24c-8.91-1.6-12.31-14.99-6.16-24.24l31.45-42.56-95.45-16.06-29.14,159.59c-2.91,15.95,7.84,31.18,23.84,33.78,327.93,53.3,442.3,70.06,480.62,75.27,10.21,1.39,19.69-5.52,21.5-15.66l28.55-160.27Z"/>
  </g>
  <path class="cls-3" d="M586.25,146.55l-1.16-4.15-29.25-104.84c-5.16-18.5-24.34-29.31-42.84-24.15L38.43,145.61c-18.44,5.21-29.19,24.36-24.04,42.81l36.87,132.23c51.49-14.33,44.94-12.18,96.45-26.54l-18.09,44.64c-1.99,8.07,5.45,15.29,13.45,13.07l118.12-32.95c8-2.25,10.62-12.28,4.74-18.15l-36.57-29.39,167.32-47.02,6.45-1.8,189.6-52.7-6.49-23.26Z"/>
</svg>